<svg width="180" height="180" viewBox="0 0 180 180" fill="none" xmlns="http://www.w3.org/2000/svg">
<rect width="180" height="180" rx="90" fill="#0E241F"/>
<path fill-rule="evenodd" clip-rule="evenodd" d="M127.909 59.7514C126.994 60.6964 125.548 61.3948 122.998 62.1237C120.503 62.8369 117.652 64.2153 116.433 65.2985C114.488 67.027 113.213 69.5262 112.724 72.5674C112.466 74.1733 112.553 79.1807 112.844 79.4729C112.971 79.5998 113.103 79.4097 113.261 78.8776C113.619 77.663 115.179 74.7384 116.08 73.5908C117.185 72.1839 118.591 71.045 121.347 69.3234C124.118 67.5924 126.078 65.6822 126.922 63.8911C127.54 62.5793 127.61 62.8559 127.089 64.5503C126.636 66.0227 125.527 67.7183 124.401 68.6599C123.93 69.0531 122.576 70.0052 121.391 70.7758C118.223 72.8358 116.523 74.6077 115.209 77.2174C114.506 78.6153 113.808 80.5603 114.011 80.5603C114.108 80.5603 114.616 80.3179 115.139 80.0218C115.663 79.7255 117.155 79.0781 118.455 78.5828C121.748 77.3284 122.758 76.8556 124.189 75.9007C126.389 74.4323 127.767 72.584 128.677 69.8815C129.152 68.4711 129.169 68.2866 129.164 64.4964C129.16 61.5817 129.092 60.3694 128.898 59.7859L128.636 59L127.909 59.7514ZM100.499 69.2585C97.4967 69.6998 94.4258 71.8882 93.0925 74.5364C92.1535 76.402 91.8131 77.897 91.5664 81.2419C91.3842 83.7118 91.268 84.4615 91.0258 84.7302C90.8562 84.9184 90.1909 85.2156 89.5476 85.3903C88.2087 85.7543 87.8836 86.025 88.1611 86.5454C88.308 86.821 88.6222 86.9182 89.644 87.0041C90.3571 87.0642 91.0618 87.2144 91.2102 87.3382C91.4447 87.5335 91.4702 88.9621 91.4051 98.2545C91.3402 107.507 91.2882 109.13 91.0189 110.315C90.0509 114.573 87.4255 117.297 83 118.635C81.5642 119.069 81.0405 119.132 78.7273 119.146C75.6005 119.166 73.8196 118.787 71.1818 117.539C67.8165 115.946 65.5542 113.806 60.7931 107.713C57.5825 103.605 56.1904 102.048 54.1867 100.326C52.5133 98.8874 49.8375 97.5054 47.8787 97.068L46.4547 96.7498L48.4547 96.2274C52.4189 95.1916 55.5891 93.1975 59.4722 89.2973C61.872 86.8869 63.0742 86.0137 64.5909 85.5798C65.6478 85.2773 65.7251 85.2032 65.526 84.6825C65.4285 84.4277 64.746 84.3938 59.72 84.3938C54.1185 84.3938 54.0225 84.4 53.9049 84.772C53.8289 85.0126 53.8995 85.2765 54.0991 85.498C54.5365 85.9834 54.3636 87.0505 53.6078 88.53C52.2905 91.1085 50.3305 93.1718 48.028 94.4039C47.0169 94.945 44.3796 95.8941 43.8871 95.8941C43.68 95.8941 43.6311 93.722 43.5922 82.7965L43.5455 69.6989H38.8182C34.3569 69.6989 34.0909 69.7177 34.0909 70.0334C34.0909 70.2185 34.4118 70.5865 34.8098 70.8579C35.2051 71.1275 35.696 71.6341 35.9007 71.9838C36.2684 72.6123 36.2727 72.8188 36.2727 89.8701V107.121L35.8182 108.024C35.4996 108.656 35.1596 109.031 34.6818 109.274C34.2515 109.493 34 109.75 34 109.97C34 110.309 34.192 110.319 39.9522 110.272C45.4504 110.227 45.9089 110.2 45.9653 109.905C46.006 109.693 45.8547 109.521 45.5133 109.391C44.6238 109.054 44.0298 108.327 43.8218 107.321C43.7096 106.778 43.6496 104.678 43.6782 102.289L43.7273 98.1881L45.0098 99.4759C45.7153 100.184 47.6369 102.44 49.2802 104.49C50.9235 106.539 52.9791 109.048 53.8484 110.065C58.6851 115.726 64.6664 119.306 71.5455 120.659C73.6487 121.073 79.81 121.122 81.7273 120.741C84.9469 120.101 88.5382 118.56 90.8182 116.842C94.196 114.297 96.2278 111.385 97.536 107.213C98.4449 104.314 98.5804 102.812 98.6782 94.5482L98.7687 86.9047L101.521 87.0248C104.823 87.169 105.917 87.3818 106.289 87.9536C106.523 88.3113 106.553 89.6992 106.508 97.9274C106.457 106.964 106.435 107.523 106.103 108.17C105.866 108.631 105.491 108.981 104.957 109.241C104.427 109.498 104.182 109.726 104.22 109.925C104.272 110.194 104.853 110.224 110.091 110.224C115.114 110.224 115.911 110.187 115.955 109.95C115.985 109.791 115.722 109.523 115.329 109.311C114.957 109.11 114.485 108.658 114.281 108.307C113.919 107.684 113.908 107.372 113.856 95.9397C113.807 85.0193 113.782 84.2114 113.493 84.2134C113.322 84.2147 111.914 84.3832 110.364 84.5878C108.587 84.8222 105.925 84.9993 103.16 85.0666L98.7755 85.1738L98.6669 84.1904C98.3975 81.7454 98.3224 75.8144 98.546 74.6249C99.0091 72.1611 100.439 70.8818 102.72 70.8895C104.737 70.8962 106.205 71.7984 107.021 73.5324C107.823 75.2359 107.433 77.1842 105.957 78.8517C104.885 80.0623 103.636 81.6629 103.636 81.827C103.636 81.9135 104.042 82.082 104.539 82.2016C108.028 83.0418 111.258 79.3917 110.54 75.4195C109.734 70.9547 105.718 68.491 100.499 69.2585ZM103.353 72.8705C102.471 73.4099 101.47 74.7136 101.178 75.7025C100.666 77.4322 100.867 79.0248 101.773 80.4097C102.359 81.3055 102.664 81.3953 102.987 80.7677C103.132 80.4869 103.792 79.5722 104.455 78.7349C106.011 76.7678 106.252 76.286 106.242 75.1658C106.222 73.0568 104.841 71.9594 103.353 72.8705ZM132.398 84.2046C130.109 84.826 128.406 86.0073 126.864 88.0446L126.381 88.6836L126.372 86.5387L126.364 84.3938H121.545C116.809 84.3938 116.727 84.4001 116.727 84.7682C116.727 85.0215 116.927 85.2265 117.347 85.4025C118.091 85.7145 118.659 86.3975 118.92 87.2935C119.047 87.7321 119.093 91.2589 119.056 97.8108C119.002 107.338 118.988 107.69 118.63 108.307C118.427 108.658 117.977 109.089 117.63 109.265C117.271 109.446 117 109.721 117 109.904C117 110.201 117.414 110.227 122.864 110.272C128.616 110.319 128.727 110.313 128.727 109.956C128.727 109.717 128.485 109.468 128.019 109.23C127.516 108.972 127.187 108.615 126.883 107.994C126.461 107.135 126.454 107.016 126.397 100.731C126.335 93.7446 126.47 92.0374 127.209 90.4681C128.613 87.4881 132.687 86.7767 135.123 89.0864C135.391 89.3403 135.8 89.9696 136.032 90.4849C136.448 91.4077 136.455 91.532 136.511 98.7772C136.571 106.512 136.484 107.689 135.791 108.574C135.587 108.834 135.136 109.166 134.787 109.312C134.347 109.497 134.173 109.676 134.216 109.901C134.273 110.201 134.699 110.227 140.139 110.272C145.733 110.318 146 110.305 146 109.983C146 109.795 145.701 109.451 145.326 109.205C144.956 108.962 144.485 108.476 144.281 108.125C143.925 107.514 143.904 107.113 143.802 98.9973C143.701 90.9352 143.676 90.448 143.301 89.2942C142.541 86.9605 140.925 85.2829 138.554 84.3684C137.077 83.7981 134.18 83.7211 132.398 84.2046ZM71.7875 84.2154C68.3009 84.8061 66.0487 86.468 65.716 88.6956C65.3549 91.113 67.1091 92.7652 69.4922 92.2521C71.3078 91.8611 71.9533 91.0174 72.212 88.6958C72.4416 86.6341 72.8887 86.0168 74.3915 85.6864C76.1616 85.2974 78.0585 86.2557 78.836 87.932C79.9173 90.2637 78.9411 92.6059 76.3813 93.8216C75.8358 94.0808 74.2382 94.5317 72.8311 94.8238C69.5715 95.5005 68.534 95.8024 67.2749 96.4406C65.9973 97.0881 64.4955 98.4327 63.8885 99.4723C61.8949 102.888 63.0773 107.516 66.4502 109.501C68.2687 110.571 71.9805 110.998 74.2651 110.401C75.7905 110.002 77.3265 109.124 78.4607 108.004L79.4418 107.034L79.6467 107.807C79.9487 108.948 80.4656 109.686 81.2302 110.068C81.8289 110.366 82.3464 110.404 85.6089 110.388C88.5667 110.373 89.3409 110.318 89.4695 110.114C89.7173 109.721 89.5935 109.567 88.8118 109.299C87.9436 109.002 87.3558 108.363 87.1004 107.44C86.9964 107.063 86.9047 105.03 86.8971 102.922C86.8724 96.1655 86.6249 91.1722 86.2636 90.1439C85.8144 88.8654 84.9169 87.508 83.9796 86.6891C82.852 85.7041 80.5329 84.6254 78.8476 84.3021C77.3331 84.0115 73.2842 83.9619 71.7875 84.2154ZM79.1871 103.111C78.6811 105.301 77.7136 106.685 76.138 107.473C75.0593 108.013 73.47 108.106 72.4727 107.688C71.0509 107.091 70.1476 104.727 70.5078 102.545C70.9298 99.9874 72.0485 98.6698 75.4582 96.7146C76.6829 96.0123 78.0625 95.0976 78.5242 94.6821L79.3636 93.9266L79.4125 97.9243C79.45 100.985 79.3971 102.201 79.1871 103.111Z" fill="url(#paint0_linear_753_3600)"/>
<defs>
<linearGradient id="paint0_linear_753_3600" x1="34" y1="90" x2="146" y2="90" gradientUnits="userSpaceOnUse">
<stop stop-color="#F5F0DC"/>
<stop offset="1" stop-color="#F9E6A1"/>
</linearGradient>
</defs>
</svg>
